<?xml version="1.0" encoding="utf-8"?>
<!-- Generator: Adobe Illustrator 24.0.0, SVG Export Plug-In . SVG Version: 6.00 Build 0)  -->
<svg version="1.1" id="Layer_1" xmlns:serif="http://www.serif.com/"
	 xmlns="http://www.w3.org/2000/svg" xmlns:xlink="http://www.w3.org/1999/xlink" x="0px" y="0px" viewBox="0 0 792 348"
	 style="enable-background:new 0 0 792 348;" xml:space="preserve">
<style type="text/css">
	.st0{enable-background:new    ;}
	.st1{fill:#3B3B3B;}
	.st2{font-family:'ArialMT';}
	.st3{font-size:68.129px;}
	.st4{fill:#F7BC00;}
	.st5{font-family:'Arial-BoldMT';}
	.st6{font-size:163.5096px;}
	.st7{fill-rule:evenodd;clip-rule:evenodd;fill:#3B3B3B;}
</style>
<g id="Logo" transform="matrix(1.15185,0,0,1.16129,-433.446,-26.1016)">
	<g id="Text" transform="matrix(1,0,0,1,-4.03111,2.24472)">
		<g id="Texi-Service" transform="matrix(1.09414,0,0,1,414.92,49.0333)" serif:id="Texi Service">
			<g class="st0">
				<path class="st1" d="M167.3,166h-0.5c-0.2-2.6-1-4.2-2.4-5s-3.1-1.1-5.2-1.1h-8.5v32.9c0,2.8,1.5,4.2,4.6,4.3v0.4h-13.5v-0.4
					c1.3,0,2.3-0.4,3.2-1s1.3-1.7,1.3-3.3v-32.9h-8.5c-2.1,0-3.8,0.4-5.2,1.1c-1.4,0.8-2.2,2.4-2.4,5h-0.5v-9.6h0.5
					c0.3,0.4,0.6,0.8,0.8,1s0.5,0.4,0.9,0.5c0.4,0.2,0.8,0.3,1.3,0.3c0.5,0.1,1.1,0.1,1.7,0.1h27.5c1.8,0,3.3-0.6,4.3-1.9h0.5
					L167.3,166L167.3,166z"/>
				<path class="st1" d="M170.9,158.9h-0.6v-0.6H185c2.4,0,4.4,0.3,6,1s2.9,1.5,3.8,2.6c0.9,1,1.6,2.1,2,3.3
					c0.4,1.2,0.6,2.3,0.6,3.4c0,1.4-0.3,2.8-1,4.1c-0.6,1.3-1.6,2.4-3,3.4c-1.3,0.9-3,1.6-5,1.9v0.1c2.5,1.1,4.9,3.4,7,6.8l3.8,6
					c1.7,2.7,3.1,4.4,4.2,5.1c1,0.7,2.1,1.1,3.1,1.2v0.4h-7.7c-0.3-0.4-0.6-0.8-0.9-1.1c-0.3-0.4-0.6-0.7-0.9-1.2
					c-0.2-0.3-0.5-0.7-0.9-1.2s-0.6-0.8-0.7-0.9l-5.1-7.7c-1-1.6-2.1-2.9-3.1-3.8c-1.1-1-2.1-1.7-3-2.1s-1.8-0.7-2.5-0.8
					c-0.7-0.1-1.6-0.2-2.6-0.2v14.3c0,2.8,1.5,4.2,4.6,4.3v0.4h-13.5v-0.4c0.8,0,1.6-0.2,2.3-0.4c0.7-0.3,1.2-0.7,1.6-1.3
					c0.4-0.6,0.6-1.5,0.6-2.5v-29.6c0-1.6-0.4-2.7-1.2-3.3C172.8,159.2,171.9,158.9,170.9,158.9z M179.2,177.4h2.4
					c2.5,0,4.6-0.3,6.2-1c1.6-0.7,2.8-1.6,3.5-2.9s1.1-2.8,1.1-4.6c0-1.5-0.3-3-1-4.4s-1.8-2.7-3.3-3.6c-1.6-1-3.7-1.5-6.3-1.5
					c-1.1,0-2,0.1-2.7,0.2v17.8H179.2z"/>
				<path class="st1" d="M228.5,157.9l12.7,33.6c0.7,1.7,1.3,3,1.9,3.8c0.6,0.8,1.2,1.3,1.7,1.5s1.2,0.3,2.1,0.4v0.4H233v-0.4
					c1.4,0,2.5-0.1,3.3-0.4c0.8-0.2,1.2-0.9,1.2-2c0-0.6-0.2-1.4-0.5-2.4c-0.1-0.1-0.1-0.2-0.1-0.3l-3.8-10.4h-14.7l-3.4,9.6
					c-0.5,1.3-0.7,2.4-0.7,3.2c0,1.1,0.3,1.8,0.9,2.2c0.6,0.4,1.4,0.5,2.5,0.5v0.4h-10v-0.4c1.4-0.1,2.6-0.6,3.4-1.5
					c0.9-0.9,1.6-2.2,2.2-4l12-33.7h3.2V157.9z M218.9,180.2h13.5l-6.9-18.6h-0.1L218.9,180.2z"/>
				<path class="st1" d="M293.9,158.3v0.5c-1.1,0.1-1.9,0.3-2.6,0.6c-0.6,0.3-1.1,0.8-1.5,1.5c-0.3,0.8-0.5,1.8-0.5,3.3v34.4H289
					L256.4,165v24.1c0,2,0.1,3.5,0.3,4.5c0.2,1,0.4,1.7,0.8,2.1c0.7,0.9,2,1.4,3.7,1.5v0.4h-10.7v-0.4c1.2-0.1,2.1-0.3,2.8-0.7
					c0.7-0.4,1.1-1.2,1.4-2.3c0.3-1.1,0.4-2.8,0.4-5v-25.6l-1.4-1.5c-1.3-1.3-2.3-2.1-3-2.5c-0.8-0.3-1.7-0.6-2.8-0.8v-0.5h8
					l32.1,33.3v-25.3c0-1.9-0.1-3.3-0.2-4.3c-0.2-0.9-0.6-1.7-1.3-2.3c-0.7-0.6-1.8-0.9-3.3-0.9v-0.5L293.9,158.3L293.9,158.3z"/>
				<path class="st1" d="M319.8,165.9h-0.5c-0.3-1.9-1.2-3.6-2.7-5s-3.5-2.1-6-2.1c-1.6,0-3.1,0.4-4.4,1.1s-2.3,1.7-2.9,2.9
					c-0.7,1.2-1,2.6-1,4.2c0,1.2,0.2,2.3,0.6,3.3c0.4,0.9,1,1.8,1.8,2.5s1.8,1.4,2.9,2s2.6,1.4,4.4,2.4c3.1,1.6,5.5,3.2,7.3,4.7
					c1.7,1.6,2.6,3.7,2.6,6.5c0,1.7-0.5,3.3-1.4,4.8c-0.9,1.6-2.3,2.8-4.2,3.8c-1.9,1-4.2,1.5-7,1.5c-1.8,0-3.3-0.2-4.6-0.5
					c-1.3-0.3-2.7-0.8-4.1-1.5c-0.6-0.2-1-0.3-1.2-0.3c-0.4,0-0.7,0.1-0.8,0.4c-0.1,0.3-0.3,0.8-0.5,1.7h-0.5v-9.8h0.5
					c0.7,2.9,2,5,4,6.5s4.4,2.2,7.3,2.2c2.2,0,3.9-0.4,5.2-1.1c1.3-0.7,2.2-1.6,2.7-2.7s0.8-2.1,0.8-3.2c0-2.2-0.7-4-2.2-5.4
					s-3.7-2.8-6.6-4.3c-2-1-3.5-1.8-4.5-2.4s-2-1.3-3-2.2s-1.8-2-2.4-3.2s-0.9-2.6-0.9-4.2c0-1.8,0.5-3.6,1.6-5.3
					c1.1-1.7,2.6-3,4.5-4.1s4.1-1.5,6.6-1.5c1.9,0,3.8,0.3,5.7,0.9c0.3,0.1,0.7,0.2,1.2,0.2c0.6,0,1.1-0.4,1.3-1.2h0.5L319.8,165.9
					L319.8,165.9z"/>
			</g>
			<text transform="matrix(0.8611 0 0 0.8611 304.4818 197.6915)" class="st1 st2 st3"> </text>
			<text transform="matrix(0.8611 0 0 0.8611 326.1876 197.6915)" class="st1 st2 st3">S</text>
			<text transform="matrix(0.8611 0 0 0.8611 366.8437 197.6915)" class="st1 st2 st3">E</text>
			<text transform="matrix(0.8611 0 0 0.8611 408.3212 197.6915)" class="st1 st2 st3">R</text>
			<text transform="matrix(0.8611 0 0 0.8611 451.1469 197.6915)" class="st1 st2 st3">V</text>
			<text transform="matrix(0.8611 0 0 0.8611 500.1345 197.6915)" class="st1 st2 st3">I</text>
			<text transform="matrix(0.8611 0 0 0.8611 518.6725 197.6915)" class="st1 st2 st3">C</text>
			<text transform="matrix(0.8611 0 0 0.8611 563.2589 197.6915)" class="st1 st2 st3">E</text>
		</g>
		<g id="CarrGo" transform="matrix(1,0,0,1,414.5,38)">
			<text transform="matrix(0.8611 0 0 0.8611 166.2636 143.9968)" class="st4 st5 st6">Go</text>
			<g class="st0">
				<path class="st1" d="M370.2,69.5h29.4c6.6,0,11.7,0.5,15.2,1.4c4.7,1.3,8.7,3.6,12,6.9c3.3,3.3,5.9,7.3,7.6,12.1
					s2.6,10.6,2.6,17.6c0,6.1-0.8,11.4-2.4,15.8c-2,5.4-4.8,9.8-8.5,13.2c-2.8,2.5-6.6,4.5-11.3,5.9c-3.5,1-8.3,1.6-14.2,1.6h-30.2
					V69.5H370.2z M386.3,82.1v49.3h12c4.5,0,7.7-0.2,9.7-0.7c2.6-0.6,4.8-1.6,6.5-3.1c1.7-1.5,3.1-3.9,4.2-7.2s1.6-7.9,1.6-13.6
					c0-5.8-0.5-10.2-1.6-13.3s-2.6-5.5-4.6-7.2s-4.4-2.9-7.4-3.5c-2.2-0.5-6.6-0.7-13.2-0.7H386.3z"/>
				<path class="st1" d="M465.1,144h-15.3V90.1H464v7.7c2.4-3.6,4.6-6,6.5-7.2s4.1-1.7,6.6-1.7c3.5,0,6.8,0.9,10,2.7l-4.7,12.4
					c-2.6-1.6-5-2.3-7.2-2.3c-2.1,0-3.9,0.6-5.4,1.7c-1.5,1.1-2.7,3.1-3.5,6c-0.9,2.9-1.3,8.9-1.3,18.1V144H465.1z"/>
				<path class="st1" d="M493.8,82.7V69.5H509v13.2H493.8z M493.8,144V90.1H509V144H493.8z"/>
				<path class="st1" d="M540.5,144l-23.2-53.9h16l10.9,27.5l3.1,9.2c0.8-2.3,1.4-3.9,1.6-4.6c0.5-1.5,1-3,1.6-4.6l11-27.5h15.7
					L554.3,144H540.5z"/>
				<path class="st1" d="M581.1,128.6l15.3-2.2c0.7,2.8,2,4.9,4,6.3c2,1.4,4.8,2.2,8.4,2.2c3.9,0,6.9-0.7,8.9-2c1.3-0.9,2-2.2,2-3.8
					c0-1.1-0.4-2-1.1-2.7c-0.8-0.7-2.5-1.3-5.1-1.9c-12.3-2.5-20.1-4.9-23.4-7c-4.6-2.9-6.8-7-6.8-12.1c0-4.7,2-8.6,5.9-11.8
					s10.1-4.8,18.4-4.8c7.9,0,13.8,1.2,17.6,3.6c3.8,2.4,6.5,6,7.9,10.7l-14.4,2.5c-0.6-2.1-1.8-3.7-3.5-4.8s-4.2-1.7-7.4-1.7
					c-4,0-6.9,0.5-8.6,1.6c-1.2,0.7-1.7,1.7-1.7,2.9c0,1,0.5,1.9,1.5,2.6c1.4,0.9,6.1,2.3,14.3,4c8.1,1.7,13.8,3.8,17,6.3
					s4.8,6.1,4.8,10.6c0,4.9-2.2,9.2-6.6,12.7c-4.4,3.6-11,5.3-19.6,5.3c-7.9,0-14.1-1.5-18.7-4.5
					C585.6,137.8,582.6,133.7,581.1,128.6z"/>
			</g>
		</g>
	</g>
	<g id="Shape" transform="matrix(1.00243,0,0,0.96875,0.396189,4.01099)">
		<path id="Shape1" serif:id="Shape" class="st7" d="M472,115.8c28.1,5.8,46.6,20.2,56.5,44.4c1.3,2.9,2.3,6,3.1,9.1l0,0
			c-15.1-4.5-40.8-11.1-61.9-11.1c-27.2,0-62.3,11-72.1,14.3l-8.5,2.7c-0.4,3.1-0.7,6.6-0.7,9.9c0,44.6,36.4,80.8,81.3,80.8
			c44.9,0,81.3-36.2,81.3-80.8s-36.4-80.8-81.3-80.8L472,115.8z M448.5,244.9c-23-8.1-40-28.8-42.4-53.9c13.9-4.7,38.2-11,42.9-0.2
			C457.5,210.3,452.4,232.9,448.5,244.9z M490.9,244.9c-3.9-12-9-34.6-0.5-54c4.7-10.8,29-4.5,42.9,0.2
			C530.9,216,513.9,236.8,490.9,244.9z M469.7,193.9c-7.1,0-12.9-5.7-12.9-12.8c0-7.1,5.8-12.8,12.9-12.8s12.9,5.7,12.9,12.8
			S476.8,193.9,469.7,193.9z M381.4,155.1c-0.5,0.5-1.2,0.8-2,0.9c-1.9,0.2-3.7-1.1-3.9-3.1c-2.5-21.2,5-41.8,20.6-56.5
			c15.2-14.3,35.9-20.8,56.6-17.7c1.9,0.3,3.2,2.1,2.9,4c-0.3,1.9-2.1,3.2-4,2.9c-18.6-2.8-37.1,3-50.7,15.8
			c-14,13.2-20.7,31.6-18.5,50.6C382.6,153.4,382.1,154.4,381.4,155.1z M451.9,123c-0.7,0.6-1.5,1-2.5,1c-7.4-0.2-14.5,2.5-19.9,7.6
			s-8.5,12-8.7,19.3c-0.1,1.9-1.7,3.4-3.6,3.4s-3.5-1.7-3.4-3.6c0.2-9.3,4.1-17.9,10.9-24.2c6.7-6.4,15.6-9.7,24.9-9.5
			c1.9,0,3.5,1.6,3.4,3.6C452.9,121.5,452.5,122.4,451.9,123z M451.8,104.2c-0.6,0.6-1.4,0.9-2.3,1c-12.1,0.3-23.7,5-32.5,13.3
			c-8.5,8-13.8,18.8-15,30.4c-0.2,1.9-1.9,3.3-3.8,3.1c-1.9-0.2-3.3-1.9-3.2-3.8c1.3-13.2,7.4-25.6,17.2-34.8
			c10.1-9.5,23.3-14.9,37.2-15.2c1.9,0,3.5,1.5,3.6,3.4C453,102.6,452.5,103.5,451.8,104.2z"/>
	</g>
</g>
</svg>
